# xmcd CD database file
#
# Track frame offsets:
#	150
#	13525
#	30000
#	46117
#	63787
#	87065
#	108280
#	137132
#	162645
#	179287
#	195720
#	218390
#	242577
#	268232
#	294207
#	311660
#
# Disc length: 4414 seconds
#
# Revision: 0
# Processed by: cddbd v1.5.1PL0 Copyright (c) Steve Scherf et al.
# Submitted via: CDex 1.50
#
DISCID=cb113c10
DTITLE=Jovan Maljokovic - Sentimental Funk and Just You, Just Me
DYEAR=1997
DGENRE=Jazz
TTITLE0=Top Latino
TTITLE1=Funky Jo
TTITLE2=Groovy Afternoon
TTITLE3=Budjenje U Podne
TTITLE4=Sentimental Funk
TTITLE5=K. Town Motel
TTITLE6=Karanfil
TTITLE7=Bonito
TTITLE8=Vasar U Obrenovcu
TTITLE9=Cafe Cinema
TTITLE10=Candy
TTITLE11=Coltrane's Blues
TTITLE12=I Can't Get Started
TTITLE13=I Love You
TTITLE14=Just You, Just Me
TTITLE15=Blue 'N' Boogie
EXTD=YEAR: 1997
EXTT0=
EXTT1=
EXTT2=
EXTT3=
EXTT4=
EXTT5=
EXTT6=
EXTT7=
EXTT8=
EXTT9=
EXTT10=
EXTT11=
EXTT12=
EXTT13=
EXTT14=
EXTT15=
PLAYORDER=
